<?xml version="1.0" encoding="UTF-8" standalone="no"?>
<!-- Created with Inkscape (http://www.inkscape.org/) -->

<svg
   xmlns:dc="http://purl.org/dc/elements/1.1/"
   xmlns:cc="http://creativecommons.org/ns#"
   xmlns:rdf="http://www.w3.org/1999/02/22-rdf-syntax-ns#"
   xmlns:svg="http://www.w3.org/2000/svg"
   xmlns="http://www.w3.org/2000/svg"
   xmlns:xlink="http://www.w3.org/1999/xlink"
   xmlns:sodipodi="http://sodipodi.sourceforge.net/DTD/sodipodi-0.dtd"
   xmlns:inkscape="http://www.inkscape.org/namespaces/inkscape"
   id="svg548"
   inkscape:version="0.92.3 (2405546, 2018-03-11)"
   viewBox="0 0 512.73 400.41"
   sodipodi:version="0.32"
   version="1.1"
   inkscape:output_extension="org.inkscape.output.svg.inkscape"
   sodipodi:docname="logo.svg">
  <defs
     id="defs550">
    <linearGradient
       inkscape:collect="always"
       id="linearGradient4589">
      <stop
         style="stop-color:#000000;stop-opacity:1;"
         offset="0"
         id="stop4585" />
      <stop
         style="stop-color:#000000;stop-opacity:0;"
         offset="1"
         id="stop4587" />
    </linearGradient>
    <filter
       id="filter4804"
       inkscape:collect="always"
       color-interpolation-filters="sRGB">
      <feGaussianBlur
         id="feGaussianBlur4806"
         stdDeviation="6.2719001"
         inkscape:collect="always" />
    </filter>
    <linearGradient
       inkscape:collect="always"
       xlink:href="#linearGradient4589"
       id="linearGradient4591"
       x1="90.492188"
       y1="198.11133"
       x2="460.38281"
       y2="198.11133"
       gradientUnits="userSpaceOnUse" />
    <filter
       style="color-interpolation-filters:sRGB;"
       inkscape:label="Drop Shadow"
       id="filter4651">
      <feFlood
         flood-opacity="0.498039"
         flood-color="rgb(0,0,0)"
         result="flood"
         id="feFlood4641" />
      <feComposite
         in="flood"
         in2="SourceGraphic"
         operator="in"
         result="composite1"
         id="feComposite4643" />
      <feGaussianBlur
         in="composite1"
         stdDeviation="6.3"
         result="blur"
         id="feGaussianBlur4645" />
      <feOffset
         dx="9"
         dy="7.1"
         result="offset"
         id="feOffset4647" />
      <feComposite
         in="offset"
         in2="SourceGraphic"
         operator="out"
         result="composite2"
         id="feComposite4649" />
    </filter>
  </defs>
  <sodipodi:namedview
     id="base"
     inkscape:window-width="1920"
     inkscape:window-x="0"
     inkscape:window-y="30"
     inkscape:window-maximized="1"
     inkscape:zoom="1.545"
     showgrid="false"
     inkscape:current-layer="layer1"
     inkscape:cx="130.09062"
     inkscape:cy="262.02253"
     inkscape:window-height="1021" />
  <path
     id="path816"
     inkscape:connector-curvature="0"
     sodipodi:nodetypes="ccccccccccccccccccccccccccccccccccccccccc"
     style="filter:url(#filter4804);fill-rule:evenodd;stroke-width:2.1582;fill:#000000;fill-opacity:.49804"
     d="m315 299.78 69.38 52.65-38.21-91.65 100.13 22.91-59.29-51.55h110.67l-102.76-31.5 90.9-39.99-76.54-16.13 39.67-49.35-62.52 9.22 22.98-62.702-59.59 38.897-14-57.782-42.36 51.786c0-3.597-24.86-51.051-26.18-51.051s-25.62 50.085-25.62 50.085l-44.36-46.256-11.13 54.417-41.56-46.592s-0.91 52.051-3.54 52.051c-2.64 0-62.924-32.271-62.924-32.271s14.466 59.278 14.466 60.718c0 1.43-65.413-10.33-65.413-10.33l53.872 42.76-57.087 19.51s47.851 36.21 46.534 37.64-42.304 37.83-42.304 37.83 73.056-1.79 71.736-1.79c-0.15 1.19-69.852 54.54-69.852 55.97s75.852-19.08 75.852-19.08l-51.11 74.53 85.21-60.44-18.01 65.6 50.21-41.19 2.8 44.05 48.76-39.52 28.93 64.13 18.93-62.43 35.11 26.9 8.22-50.05z" />
  <path
     id="path599"
     inkscape:connector-curvature="0"
     sodipodi:nodetypes="ccccccccccccccccccccccccccccccccccccccccc"
     style="fill:#ffffff;fill-rule:evenodd;stroke:#000000;stroke-width:0.929;stroke-linejoin:round;stroke-miterlimit:4;stroke-dasharray:none"
     d="m 318.29791,282.32456 72.49983,48.58439 -39.91775,-84.57282 104.62212,21.1409 -61.94566,-47.56934 h 115.63608 l -107.38084,-29.06758 94.99798,-36.90199 -79.99225,-14.88445 41.45385,-45.537369 -65.3209,8.508039 24.0029,-57.861106 -62.25915,35.892468 -14.64,-53.327482 -44.26481,47.786186 c 0,-3.319242 -25.97789,-47.108865 -27.34679,-47.108865 C 267.06316,27.405541 241.66,73.623 241.66,73.623 L 195.30526,30.93979 183.67477,81.153811 140.25638,38.159624 c 0,0 -0.95092,48.032568 -3.70963,48.032568 -2.74827,0 -65.750392,-29.779048 -65.750392,-29.779048 0,0 15.117542,54.699656 15.117542,56.028456 0,1.31958 -68.354445,-9.53232 -68.354445,-9.53232 l 56.298658,39.46179 -59.653003,18.00344 c 1.05e-4,0 50.00273,33.41388 48.626508,34.73346 -1.377267,1.31958 -44.206296,34.90878 -44.206296,34.90878 0,0 76.337995,-1.65178 74.961773,-1.65178 -0.15152,1.09811 -72.993055,50.32846 -72.993055,51.64803 0,1.31957 79.257634,-17.60666 79.257634,-17.60666 l -53.403053,68.77483 89.047929,-55.77285 -18.81986,60.5344 52.46781,-38.00933 2.91546,40.64849 50.9526,-36.46829 31.8924,50.21771 18.11974,-48.64899 36.6888,24.8228 8.58963,-46.18516 z" />
  <metadata
     id="metadata9">
    <rdf:RDF>
      <cc:Work>
        <dc:format>image/svg+xml</dc:format>
        <dc:type
           rdf:resource="http://purl.org/dc/dcmitype/StillImage" />
        <cc:license
           rdf:resource="http://creativecommons.org/publicdomain/zero/1.0/" />
        <dc:publisher>
          <cc:Agent
             rdf:about="http://openclipart.org/">
            <dc:title>Openclipart</dc:title>
          </cc:Agent>
        </dc:publisher>
        <dc:title></dc:title>
      </cc:Work>
      <cc:License
         rdf:about="http://creativecommons.org/publicdomain/zero/1.0/">
        <cc:permits
           rdf:resource="http://creativecommons.org/ns#Reproduction" />
        <cc:permits
           rdf:resource="http://creativecommons.org/ns#Distribution" />
        <cc:permits
           rdf:resource="http://creativecommons.org/ns#DerivativeWorks" />
      </cc:License>
    </rdf:RDF>
  </metadata>
  <g
     inkscape:groupmode="layer"
     id="layer1"
     inkscape:label="Text">
    <flowRoot
       xml:space="preserve"
       id="flowRoot64"
       style="font-style:normal;font-weight:normal;font-size:40px;line-height:1.25;font-family:sans-serif;letter-spacing:0px;word-spacing:0px;fill:#000000;fill-opacity:1;stroke:#000000;stroke-width:6.07497851;stroke-linejoin:miter;stroke-miterlimit:4;stroke-dasharray:none;stroke-opacity:1;paint-order:normal;filter:url(#filter4651)"
       transform="matrix(1.1139257,-0.16097508,0.11643949,1.5399783,-84.22028,-65.847919)"><flowRegion
         id="flowRegion66"
         style="fill:#000000;fill-opacity:1;stroke:#000000;stroke-width:6.07497851;stroke-linejoin:miter;stroke-miterlimit:4;stroke-dasharray:none;stroke-opacity:1;paint-order:normal"><rect
           id="rect68"
           width="400.18045"
           height="121.33053"
           x="81.070999"
           y="148.12"
           style="fill:#000000;fill-opacity:1;stroke:#000000;stroke-width:6.07497851;stroke-linejoin:miter;stroke-miterlimit:4;stroke-dasharray:none;stroke-opacity:1;paint-order:normal" /></flowRegion><flowPara
         id="flowPara70"
         style="font-style:normal;font-variant:normal;font-weight:normal;font-stretch:normal;font-size:96px;font-family:'Lohit Malayalam';-inkscape-font-specification:'Lohit Malayalam';fill:#000000;fill-opacity:1;stroke:#000000;stroke-width:6.07497851;stroke-linejoin:miter;stroke-miterlimit:4;stroke-dasharray:none;stroke-opacity:1;paint-order:normal">KAPOW!</flowPara></flowRoot>    <flowRoot
       xml:space="preserve"
       id="flowRoot64-1"
       style="font-style:normal;font-weight:normal;font-size:40px;line-height:1.25;font-family:sans-serif;letter-spacing:0px;word-spacing:0px;fill:#000000;fill-opacity:1;stroke:#000000;stroke-width:6.07497835;stroke-linejoin:miter;stroke-miterlimit:4;stroke-dasharray:none;stroke-opacity:1;paint-order:normal"
       transform="matrix(1.1139257,-0.16097508,0.11643949,1.5399783,-86.513738,-70.622372)"><flowRegion
         id="flowRegion66-7"
         style="fill:#000000;fill-opacity:1;stroke:#000000;stroke-width:6.07497835;stroke-linejoin:miter;stroke-miterlimit:4;stroke-dasharray:none;stroke-opacity:1;paint-order:normal"><rect
           id="rect68-0"
           width="400.18045"
           height="121.33053"
           x="81.070999"
           y="148.12"
           style="fill:#000000;fill-opacity:1;stroke:#000000;stroke-width:6.07497835;stroke-linejoin:miter;stroke-miterlimit:4;stroke-dasharray:none;stroke-opacity:1;paint-order:normal" /></flowRegion><flowPara
         id="flowPara70-6"
         style="font-style:normal;font-variant:normal;font-weight:normal;font-stretch:normal;font-size:96px;font-family:'Lohit Malayalam';-inkscape-font-specification:'Lohit Malayalam';fill:#000000;fill-opacity:1;stroke:#000000;stroke-width:6.07497835;stroke-linejoin:miter;stroke-miterlimit:4;stroke-dasharray:none;stroke-opacity:1;paint-order:normal">KAPOW!</flowPara></flowRoot>  </g>
</svg>
